# xmcd
#
# Track frame offsets:
#	150
#	14507
#	25022
#	39915
#	51889
#	65067
#	80105
#	92110
#	111840
#	131012
#	141780
#	155260
#	162612
#	178265
#
# Disc length: 2571 seconds
#
# Revision: 2
# Processed by: cddbd v1.4PL0 Copyright (c) Steve Scherf et al.
# Submitted via: audiograbber 1.81.03
#
DISCID=c20a090e
DTITLE=Various Artist - Rounder Europe - Blues Review - CD 3
DYEAR=1997
DGENRE=Blues
TTITLE0=Ted Hawkins - One Hundred Miles
TTITLE1=Paul Rishell and Annie Raines - Step It Up And Go
TTITLE2=Jesse Thomas - Guess I'll Walk Alone
TTITLE3=Freddie King - That´s Alright
TTITLE4=Tom Ball  and Kenny Sultan - Ride That Train
TTITLE5=Bob Brozman - I Can't Hardly Get Along
TTITLE6=John Hammond - It Hurts Me Too
TTITLE7=Little Anthony and Sugar Ray - Worried Life Blues
TTITLE8=Rory Block - Like A Shotgun
TTITLE9=Lonnie Pitchford - Sweet Home Chicago
TTITLE10=Johnny Dyer - Pretty Thing
TTITLE11=Little Buster - Baby Couldn't Be Found
TTITLE12=The Persuasions - Members Only
TTITLE13=Monti Amundson - I'm Good
EXTD=
EXTT0=
EXTT1=
EXTT2=
EXTT3=
EXTT4=
EXTT5=
EXTT6=
EXTT7=
EXTT8=
EXTT9=
EXTT10=
EXTT11=
EXTT12=
EXTT13=
PLAYORDER=
